<svg xmlns="http://www.w3.org/2000/svg" width="1080" height="360" viewBox="0 0 1080 360">
  <rect width="1080" height="360" fill="#fbfcff"/>
  <text x="54" y="68" font-size="30" font-family="Arial" fill="#171b26" font-weight="700">Day 17: Purchase funnel from offer view to paid user</text>
  <text x="54" y="100" font-size="18" font-family="Arial" fill="#566075">Mobile puzzle monetization decision chain</text>
  <g><rect x="54" y="130" width="200" height="126" rx="12" fill="#eef6ff" stroke="#283044" stroke-width="2"/><text x="72" y="165" font-size="20" font-family="Arial" fill="#1e2433" font-weight="700">Player value</text><text x="72" y="198" font-size="15" font-family="Arial" fill="#3d4658">Motivation, session moment, trust</text></g><g><rect x="304" y="130" width="200" height="126" rx="12" fill="#f4f0ff" stroke="#283044" stroke-width="2"/><text x="322" y="165" font-size="20" font-family="Arial" fill="#1e2433" font-weight="700">Monetization touch</text><text x="322" y="198" font-size="15" font-family="Arial" fill="#3d4658">Ad, offer, price, cooldown</text></g><g><rect x="554" y="130" width="200" height="126" rx="12" fill="#effaf2" stroke="#283044" stroke-width="2"/><text x="572" y="165" font-size="20" font-family="Arial" fill="#1e2433" font-weight="700">Metric signal</text><text x="572" y="198" font-size="15" font-family="Arial" fill="#3d4658">Retention, ARPDAU, funnel, QA</text></g><g><rect x="804" y="130" width="200" height="126" rx="12" fill="#fff7e8" stroke="#283044" stroke-width="2"/><text x="822" y="165" font-size="20" font-family="Arial" fill="#1e2433" font-weight="700">Next action</text><text x="822" y="198" font-size="15" font-family="Arial" fill="#3d4658">Keep, iterate, rollback, hold</text></g>
  <path d="M264 192 H292" stroke="#283044" stroke-width="3"/><path d="M292 192 l-9 -8 v16z" fill="#283044"/><path d="M514 192 H542" stroke="#283044" stroke-width="3"/><path d="M542 192 l-9 -8 v16z" fill="#283044"/><path d="M764 192 H792" stroke="#283044" stroke-width="3"/><path d="M792 192 l-9 -8 v16z" fill="#283044"/>
  <text x="54" y="312" font-size="16" font-family="Arial" fill="#566075">Rule: revenue change is not a win until the player-value chain and metric readout still make sense.</text>
</svg>