<svg xmlns="http://www.w3.org/2000/svg" viewBox="0 0 800 500" width="800" height="500">
        <rect width="100%" height="100%" fill="#0f172a" rx="16"/>
        <text x="400" y="60" font-family="Segoe UI, Arial, sans-serif" font-size="28" font-weight="bold" fill="#ffffff" text-anchor="middle">Post-Test Learning Cycle Loop</text>
        <text x="400" y="95" font-family="Segoe UI, Arial, sans-serif" font-size="16" fill="#94a3b8" text-anchor="middle">Operating loop for continuous campaign test iterations</text>
        <defs>
            <marker id="arrow" markerWidth="10" markerHeight="10" refX="9" refY="3" orient="auto" markerUnits="strokeWidth">
                <path d="M0,0 L0,6 L9,3 z" fill="#38bdf8" />
            </marker>
        </defs>
        
    <rect x="300" y="140" width="200" height="50" rx="8" fill="#1e293b" stroke="#38bdf8" stroke-width="2"/>
    <text x="400" y="170" font-family="Arial" font-size="14" fill="#ffffff" text-anchor="middle">1. Run Campaign Test</text>

    <path d="M 400 190 L 400 220" stroke="#38bdf8" stroke-width="2" fill="none" marker-end="url(#arrow)"/>

    <rect x="300" y="220" width="200" height="50" rx="8" fill="#1e293b" stroke="#38bdf8" stroke-width="2"/>
    <text x="400" y="250" font-family="Arial" font-size="14" fill="#ffffff" text-anchor="middle">2. Analyze Metrics</text>

    <path d="M 400 270 L 400 300" stroke="#38bdf8" stroke-width="2" fill="none" marker-end="url(#arrow)"/>

    <rect x="300" y="300" width="200" height="50" rx="8" fill="#1e293b" stroke="#38bdf8" stroke-width="2"/>
    <text x="400" y="330" font-family="Arial" font-size="14" fill="#ffffff" text-anchor="middle">3. Extract Learnings</text>

    <path d="M 400 350 L 400 380" stroke="#38bdf8" stroke-width="2" fill="none" marker-end="url(#arrow)"/>

    <rect x="280" y="380" width="240" height="50" rx="8" fill="#1e293b" stroke="#a855f7" stroke-width="2"/>
    <text x="400" y="410" font-family="Arial" font-size="14" fill="#ffffff" text-anchor="middle">4. Refine Hypothesis &amp; Target</text>

    <!-- Cycle back connection -->
    <path d="M 280 405 L 180 405 L 180 165 L 290 165" stroke="#34d399" stroke-width="2" fill="none" marker-end="url(#arrow)"/>
    <text x="210" y="155" font-family="Arial" font-size="12" fill="#34d399">Iterate loop</text>
    
    </svg>