<svg xmlns="http://www.w3.org/2000/svg" viewBox="0 0 800 500" width="800" height="500">
        <rect width="100%" height="100%" fill="#1e1b4b" rx="16"/>
        <text x="400" y="60" font-family="Segoe UI, Arial, sans-serif" font-size="28" font-weight="bold" fill="#ffffff" text-anchor="middle">UA Metric Decision Map</text>
        <text x="400" y="95" font-family="Segoe UI, Arial, sans-serif" font-size="16" fill="#94a3b8" text-anchor="middle">Mapping ARPDAU progress from initial launch to optimization ($0.00 - $1.00)</text>
        <defs>
            <marker id="arrow" markerWidth="10" markerHeight="10" refX="9" refY="3" orient="auto" markerUnits="strokeWidth">
                <path d="M0,0 L0,6 L9,3 z" fill="#34d399" />
            </marker>
        </defs>
        
    <rect x="100" y="160" width="600" height="240" rx="8" fill="#1e293b" stroke="#38bdf8" stroke-width="2"/>
    
    <!-- Y Axis ticks -->
    <line x1="200" y1="180" x2="200" y2="360" stroke="#38bdf8" stroke-width="2"/>
    <line x1="190" y1="180" x2="200" y2="180" stroke="#38bdf8" stroke-width="2"/>
    <text x="180" y="185" font-family="Arial" font-size="12" fill="#ffffff" text-anchor="end">$1.00 (Max Target)</text>
    
    <line x1="190" y1="270" x2="200" y2="270" stroke="#38bdf8" stroke-width="2"/>
    <text x="180" y="275" font-family="Arial" font-size="12" fill="#ffffff" text-anchor="end">$0.50</text>

    <line x1="190" y1="360" x2="200" y2="360" stroke="#38bdf8" stroke-width="2"/>
    <text x="180" y="365" font-family="Arial" font-size="12" fill="#ffffff" text-anchor="end">$0.00</text>

    <!-- Data Bars -->
    <text x="300" y="380" font-family="Arial" font-size="14" fill="#ffffff" text-anchor="middle">Day 1 ($0.12)</text>
    <rect x="270" y="338" width="60" height="22" fill="#ef4444"/>

    <text x="450" y="380" font-family="Arial" font-size="14" fill="#ffffff" text-anchor="middle">Day 5 ($0.38)</text>
    <rect x="420" y="291" width="60" height="69" fill="#f59e0b"/>

    <text x="600" y="380" font-family="Arial" font-size="14" fill="#ffffff" text-anchor="middle">Day 15 ($0.75)</text>
    <rect x="570" y="225" width="60" height="135" fill="#34d399"/>
    
    </svg>