<svg xmlns="http://www.w3.org/2000/svg" viewBox="0 0 800 500" width="800" height="500">
        <rect width="100%" height="100%" fill="#0f172a" rx="16"/>
        <text x="400" y="60" font-family="Segoe UI, Arial, sans-serif" font-size="28" font-weight="bold" fill="#ffffff" text-anchor="middle">Format Selection Flowchart</text>
        <text x="400" y="95" font-family="Segoe UI, Arial, sans-serif" font-size="16" fill="#94a3b8" text-anchor="middle">How to choose the ad format based on testing requirements</text>
        <defs>
            <marker id="arrow" markerWidth="10" markerHeight="10" refX="9" refY="3" orient="auto" markerUnits="strokeWidth">
                <path d="M0,0 L0,6 L9,3 z" fill="#38bdf8" />
            </marker>
        </defs>
        
    <rect x="280" y="160" width="240" height="60" rx="8" fill="#1e293b" stroke="#38bdf8" stroke-width="2"/>
    <text x="400" y="195" font-family="Arial" font-size="16" fill="#ffffff" text-anchor="middle">Analyze Goal</text>

    <path d="M 400 220 L 400 260" stroke="#38bdf8" stroke-width="2" fill="none" marker-end="url(#arrow)"/>

    <!-- Split -->
    <rect x="150" y="270" width="220" height="70" rx="8" fill="#1e293b" stroke="#f43f5e" stroke-width="2"/>
    <text x="260" y="300" font-family="Arial" font-size="14" fill="#ffffff" text-anchor="middle">Goal: Test Interaction Details</text>
    <text x="260" y="325" font-family="Arial" font-size="12" fill="#f87171" text-anchor="middle">Requires Gameplay Sandbox</text>

    <rect x="430" y="270" width="220" height="70" rx="8" fill="#1e293b" stroke="#34d399" stroke-width="2"/>
    <text x="540" y="300" font-family="Arial" font-size="14" fill="#ffffff" text-anchor="middle">Goal: Test Broad Appeal</text>
    <text x="540" y="325" font-family="Arial" font-size="12" fill="#34d399" text-anchor="middle">Requires Video Teaser</text>

    <path d="M 400 240 L 260 240 L 260 270" stroke="#38bdf8" stroke-width="2" fill="none"/>
    <path d="M 400 240 L 540 240 L 540 270" stroke="#38bdf8" stroke-width="2" fill="none"/>

    <!-- Actions -->
    <path d="M 260 340 L 260 380" stroke="#f43f5e" stroke-width="2" fill="none" marker-end="url(#arrow)"/>
    <path d="M 540 340 L 540 380" stroke="#34d399" stroke-width="2" fill="none" marker-end="url(#arrow)"/>

    <rect x="160" y="390" width="200" height="60" rx="8" fill="#1e293b" stroke="#f43f5e" stroke-width="2"/>
    <text x="260" y="425" font-family="Arial" font-size="16" fill="#ffffff" text-anchor="middle">Deploy: Playable Ad</text>

    <rect x="440" y="390" width="200" height="60" rx="8" fill="#1e293b" stroke="#34d399" stroke-width="2"/>
    <text x="540" y="425" font-family="Arial" font-size="16" fill="#ffffff" text-anchor="middle">Deploy: Video Ad</text>
    
    </svg>