<svg xmlns="http://www.w3.org/2000/svg" viewBox="0 0 800 500" width="800" height="500">
        <rect width="100%" height="100%" fill="#1e1b4b" rx="16"/>
        <text x="400" y="60" font-family="Segoe UI, Arial, sans-serif" font-size="28" font-weight="bold" fill="#ffffff" text-anchor="middle">UA Launch Risk Heatmap</text>
        <text x="400" y="95" font-family="Segoe UI, Arial, sans-serif" font-size="16" fill="#94a3b8" text-anchor="middle">3x3 matrix mapping launch risks by Impact vs Probability</text>
        <defs>
            <marker id="arrow" markerWidth="10" markerHeight="10" refX="9" refY="3" orient="auto" markerUnits="strokeWidth">
                <path d="M0,0 L0,6 L9,3 z" fill="#34d399" />
            </marker>
        </defs>
        
    <rect x="150" y="160" width="500" height="240" rx="8" fill="#1e293b" stroke="#38bdf8" stroke-width="2"/>
    <line x1="150" y1="240" x2="650" y2="240" stroke="#38bdf8" stroke-width="1"/>
    <line x1="150" y1="320" x2="650" y2="320" stroke="#38bdf8" stroke-width="1"/>
    <line x1="316" y1="160" x2="316" y2="400" stroke="#38bdf8" stroke-width="1"/>
    <line x1="482" y1="160" x2="482" y2="400" stroke="#38bdf8" stroke-width="1"/>

    <!-- High Impact / High Prob -->
    <rect x="483" y="161" width="166" height="78" fill="#7f1d1d" opacity="0.8"/>
    <text x="566" y="200" font-family="Arial" font-size="14" font-weight="bold" fill="#ffffff" text-anchor="middle">SDK Crash</text>
    <text x="566" y="220" font-family="Arial" font-size="11" fill="#fca5a5" text-anchor="middle">(Critical Blocker)</text>

    <!-- High Impact / Med Prob -->
    <rect x="317" y="161" width="164" height="78" fill="#7c2d12" opacity="0.8"/>
    <text x="399" y="200" font-family="Arial" font-size="14" font-weight="bold" fill="#ffffff" text-anchor="middle">Store mismatch</text>
    <text x="399" y="220" font-family="Arial" font-size="11" fill="#fdba74" text-anchor="middle">(Medium Risk)</text>

    <!-- Low Impact / Low Prob -->
    <rect x="151" y="321" width="164" height="78" fill="#064e3b" opacity="0.8"/>
    <text x="233" y="360" font-family="Arial" font-size="14" font-weight="bold" fill="#ffffff" text-anchor="middle">Minor CVR drop</text>
    <text x="233" y="380" font-family="Arial" font-size="11" fill="#86efac" text-anchor="middle">(Low Risk)</text>
    
    </svg>