<svg xmlns="http://www.w3.org/2000/svg" viewBox="0 0 800 500" width="800" height="500">
        <rect width="100%" height="100%" fill="#1e1b4b" rx="16"/>
        <text x="400" y="60" font-family="Segoe UI, Arial, sans-serif" font-size="28" font-weight="bold" fill="#ffffff" text-anchor="middle">Sensor Tower Market Share Trends (Puzzle Mobile Genre)</text>
        <text x="400" y="95" font-family="Segoe UI, Arial, sans-serif" font-size="16" fill="#94a3b8" text-anchor="middle">Competitor download share analysis showing market consolidation (Jan - Jun)</text>
        <defs>
            <marker id="arrow" markerWidth="10" markerHeight="10" refX="9" refY="3" orient="auto" markerUnits="strokeWidth">
                <path d="M0,0 L0,6 L9,3 z" fill="#34d399" />
            </marker>
        </defs>
        
    <!-- Dashboard Header -->
    <rect x="50" y="140" width="700" height="40" rx="4" fill="#0f172a" stroke="#334155" stroke-width="1"/>
    <text x="65" y="165" font-family="Arial" font-size="12" fill="#94a3b8">Source: Sensor Tower Store Intelligence  |  Category: Puzzle  |  Region: US iOS + Android</text>

    <!-- Chart Panel -->
    <rect x="80" y="200" width="640" height="200" fill="#1e293b" stroke="#334155" stroke-width="1"/>

    <!-- Area Chart Paths representing stacked market share -->
    <!-- candy crush saga segment (bottom, purple) -->
    <path d="M 80 400 L 200 340 L 320 350 L 440 330 L 560 310 L 720 300 L 720 400 L 80 400 Z" fill="#8b5cf6" opacity="0.8"/>
    
    <!-- royal match segment (middle, gold) -->
    <path d="M 80 340 L 200 280 L 320 250 L 440 210 L 560 180 L 720 160 L 720 300 L 560 310 L 440 330 L 320 350 L 200 340 L 80 400 Z" fill="#f59e0b" opacity="0.85"/>
    
    <!-- merge mansion segment (top, blue) -->
    <path d="M 80 200 L 200 200 L 320 200 L 440 200 L 560 200 L 720 200 L 720 160 L 560 180 L 440 210 L 320 250 L 200 280 L 80 340 Z" fill="#3b82f6" opacity="0.75"/>

    <!-- Grid lines overlay -->
    <line x1="80" y1="200" x2="720" y2="200" stroke="#475569" stroke-dasharray="2" stroke-width="1"/>
    <line x1="80" y1="250" x2="720" y2="250" stroke="#475569" stroke-dasharray="2" stroke-width="1"/>
    <line x1="80" y1="300" x2="720" y2="300" stroke="#475569" stroke-dasharray="2" stroke-width="1"/>
    <line x1="80" y1="350" x2="720" y2="350" stroke="#475569" stroke-dasharray="2" stroke-width="1"/>

    <!-- Labels on segments -->
    <text x="350" y="380" font-family="Arial" font-size="11" font-weight="bold" fill="#ffffff">Candy Crush Saga (Steady)</text>
    <text x="450" y="270" font-family="Arial" font-size="12" font-weight="bold" fill="#ffffff">Royal Match (Scale Leader)</text>
    <text x="350" y="225" font-family="Arial" font-size="11" font-weight="bold" fill="#ffffff">Merge Mansion (Stable)</text>

    <!-- X-axis Labels (Months) -->
    <text x="80" y="420" font-family="Arial" font-size="11" fill="#94a3b8" text-anchor="middle">Jan</text>
    <text x="200" y="420" font-family="Arial" font-size="11" fill="#94a3b8" text-anchor="middle">Feb</text>
    <text x="320" y="420" font-family="Arial" font-size="11" fill="#94a3b8" text-anchor="middle">Mar</text>
    <text x="440" y="420" font-family="Arial" font-size="11" fill="#94a3b8" text-anchor="middle">Apr</text>
    <text x="560" y="420" font-family="Arial" font-size="11" fill="#94a3b8" text-anchor="middle">May</text>
    <text x="720" y="420" font-family="Arial" font-size="11" fill="#94a3b8" text-anchor="middle">Jun</text>

    <!-- Footer Note -->
    <text x="400" y="450" font-family="Arial" font-size="11" fill="#94a3b8" text-anchor="middle">*Sensor Tower Intelligence data representation. Underlines why competitor copy must match scale power.*</text>
    
    </svg>