<svg xmlns="http://www.w3.org/2000/svg" viewBox="0 0 800 500" width="800" height="500">
        <rect width="100%" height="100%" fill="#0f172a" rx="16"/>
        <text x="400" y="60" font-family="Segoe UI, Arial, sans-serif" font-size="28" font-weight="bold" fill="#ffffff" text-anchor="middle">Creative Testing Workflow</text>
        <text x="400" y="95" font-family="Segoe UI, Arial, sans-serif" font-size="16" fill="#94a3b8" text-anchor="middle">A cycle for validation and deployment of ad creatives</text>
        <defs>
            <marker id="arrow" markerWidth="10" markerHeight="10" refX="9" refY="3" orient="auto" markerUnits="strokeWidth">
                <path d="M0,0 L0,6 L9,3 z" fill="#38bdf8" />
            </marker>
        </defs>
        
    <rect x="300" y="140" width="200" height="50" rx="8" fill="#1e293b" stroke="#38bdf8" stroke-width="2"/>
    <text x="400" y="170" font-family="Arial" font-size="14" fill="#ffffff" text-anchor="middle">1. Build Creative Packet</text>

    <path d="M 400 190 L 400 220" stroke="#38bdf8" stroke-width="2" fill="none" marker-end="url(#arrow)"/>

    <rect x="300" y="230" width="200" height="50" rx="8" fill="#1e293b" stroke="#38bdf8" stroke-width="2"/>
    <text x="400" y="260" font-family="Arial" font-size="14" fill="#ffffff" text-anchor="middle">2. Run Pilot Test (D1-2)</text>

    <path d="M 400 280 L 400 310" stroke="#38bdf8" stroke-width="2" fill="none" marker-end="url(#arrow)"/>

    <rect x="280" y="320" width="240" height="60" rx="8" fill="#1e293b" stroke="#f59e0b" stroke-width="2"/>
    <text x="400" y="355" font-family="Arial" font-size="14" fill="#ffffff" text-anchor="middle">Evaluate: Is CTR &gt; 2.5%?</text>

    <!-- Branch YES -->
    <path d="M 520 350 L 590 350 L 590 390" stroke="#34d399" stroke-width="2" fill="none" marker-end="url(#arrow)"/>
    <text x="555" y="340" font-family="Arial" font-size="12" fill="#34d399">YES</text>

    <rect x="490" y="400" width="200" height="50" rx="8" fill="#1e293b" stroke="#34d399" stroke-width="2"/>
    <text x="590" y="430" font-family="Arial" font-size="14" fill="#ffffff" text-anchor="middle">Scale Budget &amp; Deploy</text>

    <!-- Branch NO -->
    <path d="M 280 350 L 210 350 L 210 390" stroke="#ef4444" stroke-width="2" fill="none" marker-end="url(#arrow)"/>
    <text x="245" y="340" font-family="Arial" font-size="12" fill="#ef4444">NO</text>

    <rect x="100" y="400" width="200" height="50" rx="8" fill="#1e293b" stroke="#ef4444" stroke-width="2"/>
    <text x="210" y="430" font-family="Arial" font-size="14" fill="#ffffff" text-anchor="middle">Discard &amp; Redesign Hook</text>

    <!-- Loop back to 1 -->
    <path d="M 110 425 L 70 425 L 70 165 L 290 165" stroke="#ef4444" stroke-width="2" stroke-dasharray="4" fill="none" marker-end="url(#arrow)"/>
    
    </svg>